<svg id="prefix__Layer_1" data-name="Layer 1" xmlns="http://www.w3.org/2000/svg" viewBox="0 0 289.95 100.29" preserveAspectRatio="xMidYMid meet" class="css-1cixhi"><path fill="#fff" d="M0 21.43C0 9.44 8.24 0 22.18 0s22.18 9.44 22.18 21.43-8.24 21.43-22.18 21.43S0 33.42 0 21.43zm33.27 0c0-7-4.2-12.14-11.09-12.14s-11.09 5.1-11.09 12.14 4.2 12.14 11.09 12.14 11.09-5.1 11.09-12.14zM51.38 1.2h11.19v5.69C66.51 2.92 70.91 0 77.31 0c8.49 0 14.43 4.72 14.43 14.91v26.75H80.4V17.23c0-6-3.32-7.49-7.1-7.49-4.09 0-7.64 1.95-10.58 4.57v27.35H51.38zM140.28 21.21a29 29 0 01-.23 3.59h-30.12c1 5.77 5.4 8.84 12.51 8.84 6 0 10.72-1.87 15.29-4.57h.07v9.67a31.48 31.48 0 01-15.8 4.12c-15.81 0-23.15-8.92-23.15-20.53C98.84 9.67 107.23 0 120.49 0c13.42 0 19.79 9.22 19.79 21.21zm-30.13-3.75h19.71c-.45-5.25-4-8.39-9.59-8.39-5.27 0-8.92 3.07-10.12 8.39z"></path><path fill="#fff" d="M44.74 90.58H33.45l-.07-4.8a18.88 18.88 0 01-14 6C8.84 91.78 0 84.28 0 71.17s10.26-22.25 23.28-22.25a22.46 22.46 0 019.86 2V33.78h11.6zm-33.14-20c0 7.94 5 11.84 11.76 11.84A16.47 16.47 0 0033.14 79V61a16.08 16.08 0 00-8.84-2.7c-7.81-.02-12.7 4.78-12.7 12.27zM51.94 80.39a10.88 10.88 0 013.36-8.1C57.73 70 64 66.6 79.77 65.78v-1.2c0-3.6-2.11-6.15-7.66-6.15-5.32 0-10.87 2-16.26 5.55h-.08V53.64a36.4 36.4 0 0117.82-4.72c12.27 0 17.59 6.44 17.59 16.26v25.4H80.63L80.39 86a18.2 18.2 0 01-13.91 5.77c-9.77.01-14.54-5.01-14.54-11.38zm27.83-.68v-7c-9.3.75-13.52 2.1-15.4 3.9a3.94 3.94 0 00-1.17 2.85c0 2.4 2.11 4.12 5.94 4.12a16.49 16.49 0 0010.63-3.87zM110.88 90.62L94.31 49.88H106l10.87 28.3 10-28.3h11.24l-19.87 50.41h-10.88z"></path><path d="M137.49 70.29c0-12.24 8.42-21.88 22.65-21.88s22.64 9.64 22.64 21.88-8.42 21.88-22.64 21.88-22.65-9.64-22.65-21.88zm34 0c0-7.19-4.29-12.39-11.32-12.39s-11.33 5.2-11.33 12.39 4.29 12.39 11.33 12.39 11.29-5.2 11.29-12.39zM186.45 49.64h11.1v5.81c3.9-4.05 8.26-7 14.61-7 8.41 0 14.3 4.82 14.3 15.22v27.27h-11.24V66c0-6.12-3.29-7.65-7-7.65-4.06 0-7.58 2-10.48 4.66v27.93h-11.29zM232.67 39.56h11.24l.09 51.38h-11.25zM262.51 89.5l-16-39.94h11.93l10.2 27.24 9.84-27.24H290l-20.23 50.73h-11z"></path></svg>